<svg viewBox="0 0 200 200" width="48px" height="48px" fill="none" xmlns="http://www.w3.org/2000/svg">
  <defs>
    <linearGradient id="paint0_linear_2_248" x1="177.462" y1="76.6586" x2="177.462" y2="203.326" gradientUnits="userSpaceOnUse" gradientTransform="matrix(1, 0, 0, 1, -80.181355, -61.718663)">
      <stop stop-color="#F3881B"/>
      <stop offset="1" stop-color="#FF6633"/>
    </linearGradient>
    <linearGradient id="paint1_linear_2_248" x1="172.985" y1="126.188" x2="175.781" y2="199.679" gradientUnits="userSpaceOnUse" gradientTransform="matrix(1, 0, 0, 1, -80.181355, -61.718663)">
      <stop stop-color="#FBAD41"/>
      <stop offset="1" stop-color="#F3881B"/>
    </linearGradient>
  </defs>
  <mask id="path-1-inside-1_2_248" fill="white">
    <path fill-rule="evenodd" clip-rule="evenodd" d="M 153.158 167.688 L 53.662 141.028 L 47.36 164.546 L 145.876 190.943 C 146.059 191.033 146.25 191.106 146.449 191.159 C 149.704 192.031 153.756 187.461 155.501 180.951 C 157.174 174.705 156.115 168.942 153.151 167.715 L 153.158 167.688 Z"/>
  </mask>
  <mask id="path-5-inside-2_2_248" fill="white">
    <path fill-rule="evenodd" clip-rule="evenodd" d="M 46.842 167.688 L 146.338 141.028 L 152.64 164.546 L 54.124 190.943 C 53.941 191.033 53.75 191.106 53.552 191.159 C 50.297 192.031 46.244 187.461 44.5 180.951 C 42.826 174.705 43.886 168.942 46.849 167.715 L 46.842 167.688 Z"/>
  </mask>
  <mask id="path-7-inside-3_2_248" fill="white">
    <path d="M 44.499 180.949 C 46.243 187.459 50.296 192.029 53.551 191.157 C 56.806 190.285 58.03 184.3 56.286 177.79 C 54.542 171.28 50.489 166.71 47.234 167.582 C 43.979 168.454 42.754 174.439 44.499 180.949 Z"/>
  </mask>
  <mask id="path-10-inside-4_2_248" fill="white">
    <path fill-rule="evenodd" clip-rule="evenodd" d="M 46.842 167.688 L 146.338 141.028 L 152.64 164.546 L 54.124 190.943 C 53.941 191.033 53.75 191.106 53.552 191.159 C 50.297 192.031 46.244 187.461 44.5 180.951 C 42.826 174.705 43.886 168.942 46.849 167.715 L 46.842 167.688 Z"/>
  </mask>
  <mask id="path-12-inside-5_2_248" fill="white">
    <path d="M 44.499 180.949 C 46.243 187.459 50.296 192.029 53.551 191.157 C 56.806 190.285 58.03 184.3 56.286 177.79 C 54.542 171.28 50.489 166.71 47.234 167.582 C 43.979 168.454 42.754 174.439 44.499 180.949 Z"/>
  </mask>
  <mask id="path-15-inside-6_2_248" fill="white">
    <path fill-rule="evenodd" clip-rule="evenodd" d="M 46.842 167.688 L 146.338 141.028 L 152.64 164.546 L 54.124 190.943 C 53.941 191.033 53.75 191.106 53.552 191.159 C 50.297 192.031 46.244 187.461 44.5 180.951 C 42.826 174.705 43.886 168.942 46.849 167.715 L 46.842 167.688 Z"/>
  </mask>
  <mask id="path-17-inside-7_2_248" fill="white">
    <path d="M 44.499 180.949 C 46.243 187.459 50.296 192.029 53.551 191.157 C 56.806 190.285 58.03 184.3 56.286 177.79 C 54.542 171.28 50.489 166.71 47.234 167.582 C 43.979 168.454 42.754 174.439 44.499 180.949 Z"/>
  </mask>
  <mask id="path-20-inside-8_2_248" fill="white">
    <path fill-rule="evenodd" clip-rule="evenodd" d="M 93.794 141.492 C 120.344 143.257 143.437 124.687 145.275 99.995 C 145.687 94.652 145.078 90.259 143.724 86.563 C 138.932 67.018 119.186 44.359 119.186 44.359 C 121.013 53.37 118.634 58.738 114.443 62.713 C 101.659 55.055 92.193 44.512 103.575 14.94 C 103.575 14.94 51.892 59.545 49.281 93.578 C 47.369 118.252 67.244 139.727 93.794 141.492 Z"/>
  </mask>
  <path fill-rule="evenodd" clip-rule="evenodd" d="M 153.158 167.688 L 53.662 141.028 L 47.36 164.546 L 145.876 190.943 C 146.059 191.033 146.25 191.106 146.449 191.159 C 149.704 192.031 153.756 187.461 155.501 180.951 C 157.174 174.705 156.115 168.942 153.151 167.715 L 153.158 167.688 Z" fill="#6ECCE5"/>
  <path d="M 53.662 141.028 L 54.438 138.131 C 52.838 137.702 51.193 138.652 50.764 140.252 L 53.662 141.028 Z M 153.158 167.688 L 156.056 168.465 C 156.485 166.864 155.535 165.219 153.935 164.791 L 153.158 167.688 Z M 47.36 164.546 L 44.463 163.77 C 44.257 164.538 44.364 165.357 44.762 166.046 C 45.16 166.735 45.815 167.238 46.584 167.444 L 47.36 164.546 Z M 145.876 190.943 L 147.201 188.252 C 147.025 188.165 146.842 188.096 146.653 188.046 L 145.876 190.943 Z M 153.151 167.715 L 150.253 166.939 C 149.864 168.393 150.612 169.911 152.003 170.487 L 153.151 167.715 Z M 52.885 143.926 L 152.382 170.586 L 153.935 164.791 L 54.438 138.131 L 52.885 143.926 Z M 50.258 165.323 L 56.56 141.805 L 50.764 140.252 L 44.463 163.77 L 50.258 165.323 Z M 146.653 188.046 L 48.137 161.648 L 46.584 167.444 L 145.1 193.841 L 146.653 188.046 Z M 147.225 188.261 C 147.219 188.259 147.211 188.257 147.201 188.252 L 144.552 193.635 C 144.907 193.81 145.282 193.952 145.672 194.057 L 147.225 188.261 Z M 152.603 180.174 C 151.825 183.077 150.565 185.402 149.297 186.833 C 148.663 187.547 148.11 187.946 147.712 188.133 C 147.522 188.223 147.392 188.253 147.322 188.262 C 147.257 188.27 147.232 188.263 147.225 188.261 L 145.672 194.057 C 148.989 194.945 151.911 192.927 153.786 190.813 C 155.794 188.549 157.432 185.334 158.398 181.727 L 152.603 180.174 Z M 152.003 170.487 C 152.047 170.505 152.746 170.938 153.112 172.981 C 153.446 174.843 153.348 177.394 152.603 180.174 L 158.398 181.727 C 159.327 178.262 159.536 174.808 159.018 171.921 C 158.532 169.214 157.219 166.152 154.299 164.943 L 152.003 170.487 Z M 150.26 166.912 L 150.253 166.939 L 156.049 168.492 L 156.056 168.465 L 150.26 166.912 Z" fill="#003682" mask="url(#path-1-inside-1_2_248)"/>
  <path d="M 55.959 144.282 L 146.99 168.674 L 146.99 168.675 L 52.871 155.806 L 55.959 144.282 Z" fill="#E2F5FA"/>
  <path d="M 55.824 154.244 C 55.002 157.31 53.615 159.837 52.11 161.454 C 50.554 163.126 49.177 163.543 48.249 163.295 C 47.322 163.046 46.338 161.996 45.826 159.77 C 45.331 157.617 45.393 154.735 46.215 151.669 C 47.037 148.602 48.424 146.076 49.929 144.458 C 51.485 142.786 52.862 142.369 53.79 142.618 C 54.717 142.866 55.701 143.916 56.213 146.142 C 56.708 148.295 56.646 151.177 55.824 154.244 Z" fill="#6ECCE5" stroke="#003682" stroke-width="3"/>
  <path fill-rule="evenodd" clip-rule="evenodd" d="M 46.842 167.688 L 146.338 141.028 L 152.64 164.546 L 54.124 190.943 C 53.941 191.033 53.75 191.106 53.552 191.159 C 50.297 192.031 46.244 187.461 44.5 180.951 C 42.826 174.705 43.886 168.942 46.849 167.715 L 46.842 167.688 Z" fill="#6ECCE5"/>
  <path d="M 146.338 141.028 L 145.562 138.131 C 146.331 137.925 147.149 138.033 147.838 138.43 C 148.528 138.828 149.03 139.483 149.236 140.252 L 146.338 141.028 Z M 46.842 167.688 L 43.944 168.465 C 43.516 166.864 44.465 165.219 46.066 164.791 L 46.842 167.688 Z M 152.64 164.546 L 155.538 163.77 C 155.967 165.37 155.017 167.015 153.416 167.444 L 152.64 164.546 Z M 54.124 190.943 L 52.799 188.252 C 52.975 188.165 53.159 188.096 53.348 188.046 L 54.124 190.943 Z M 46.849 167.715 L 49.747 166.939 C 50.137 168.393 49.388 169.911 47.997 170.487 L 46.849 167.715 Z M 147.115 143.926 L 47.619 170.586 L 46.066 164.791 L 145.562 138.131 L 147.115 143.926 Z M 149.742 165.323 L 143.441 141.805 L 149.236 140.252 L 155.538 163.77 L 149.742 165.323 Z M 53.348 188.046 L 151.864 161.648 L 153.416 167.444 L 54.901 193.841 L 53.348 188.046 Z M 52.775 188.261 C 52.782 188.259 52.789 188.257 52.799 188.252 L 55.449 193.635 C 55.093 193.81 54.719 193.952 54.328 194.057 L 52.775 188.261 Z M 47.397 180.174 C 48.175 183.077 49.435 185.402 50.704 186.833 C 51.337 187.547 51.89 187.946 52.288 188.133 C 52.479 188.223 52.608 188.253 52.679 188.262 C 52.743 188.27 52.769 188.263 52.775 188.261 L 54.328 194.057 C 51.012 194.945 48.089 192.927 46.215 190.813 C 44.207 188.549 42.568 185.334 41.602 181.727 L 47.397 180.174 Z M 47.997 170.487 C 47.953 170.505 47.255 170.938 46.888 172.981 C 46.554 174.843 46.652 177.394 47.397 180.174 L 41.602 181.727 C 40.673 178.262 40.465 174.808 40.983 171.921 C 41.468 169.214 42.781 166.152 45.702 164.943 L 47.997 170.487 Z M 49.74 166.912 L 49.747 166.939 L 43.952 168.492 L 43.944 168.465 L 49.74 166.912 Z" fill="#003682" mask="url(#path-5-inside-2_2_248)"/>
  <path d="M 44.499 180.949 C 46.243 187.459 50.296 192.029 53.551 191.157 C 56.806 190.285 58.03 184.3 56.286 177.79 C 54.542 171.28 50.489 166.71 47.234 167.582 C 43.979 168.454 42.754 174.439 44.499 180.949 Z" fill="#6ECCE5"/>
  <path d="M 47.396 180.172 C 48.174 183.075 49.434 185.4 50.703 186.831 C 51.336 187.545 51.889 187.944 52.287 188.131 C 52.478 188.221 52.607 188.251 52.678 188.26 C 52.742 188.268 52.768 188.261 52.774 188.259 L 54.327 194.055 C 51.011 194.943 48.088 192.926 46.214 190.811 C 44.206 188.547 42.567 185.332 41.601 181.725 L 47.396 180.172 Z M 52.774 188.259 C 52.781 188.257 52.806 188.251 52.858 188.211 C 52.915 188.168 53.012 188.078 53.132 187.905 C 53.383 187.544 53.662 186.922 53.854 185.986 C 54.237 184.113 54.166 181.469 53.388 178.567 L 59.184 177.014 C 60.15 180.621 60.339 184.224 59.732 187.189 C 59.166 189.957 57.644 193.166 54.327 194.055 L 52.774 188.259 Z M 53.388 178.567 C 52.61 175.664 51.35 173.339 50.082 171.908 C 49.448 171.194 48.895 170.795 48.497 170.608 C 48.307 170.518 48.177 170.488 48.107 170.479 C 48.042 170.471 48.017 170.478 48.01 170.48 L 46.457 164.684 C 49.774 163.796 52.696 165.814 54.571 167.928 C 56.579 170.192 58.217 173.407 59.184 177.014 L 53.388 178.567 Z M 48.01 170.48 C 48.004 170.482 47.978 170.488 47.926 170.528 C 47.87 170.571 47.772 170.661 47.652 170.834 C 47.402 171.195 47.122 171.817 46.931 172.753 C 46.547 174.626 46.619 177.27 47.396 180.172 L 41.601 181.725 C 40.634 178.118 40.446 174.515 41.052 171.55 C 41.619 168.782 43.141 165.573 46.457 164.684 L 48.01 170.48 Z" fill="#003682" mask="url(#path-7-inside-3_2_248)"/>
  <path d="M 144.176 154.244 C 144.998 157.31 146.385 159.837 147.89 161.454 C 149.447 163.126 150.824 163.543 151.751 163.295 C 152.678 163.046 153.662 161.996 154.174 159.77 C 154.669 157.617 154.607 154.735 153.785 151.669 C 152.964 148.602 151.577 146.076 150.071 144.458 C 148.515 142.786 147.138 142.369 146.211 142.618 C 145.283 142.866 144.299 143.916 143.788 146.142 C 143.293 148.295 143.355 151.177 144.176 154.244 Z" fill="#6ECCE5" stroke="#003682" stroke-width="3"/>
  <path fill-rule="evenodd" clip-rule="evenodd" d="M 46.842 167.688 L 146.338 141.028 L 152.64 164.546 L 54.124 190.943 C 53.941 191.033 53.75 191.106 53.552 191.159 C 50.297 192.031 46.244 187.461 44.5 180.951 C 42.826 174.705 43.886 168.942 46.849 167.715 L 46.842 167.688 Z" fill="#6ECCE5"/>
  <path d="M 146.338 141.028 L 145.562 138.131 C 146.331 137.925 147.149 138.033 147.838 138.43 C 148.528 138.828 149.03 139.483 149.236 140.252 L 146.338 141.028 Z M 46.842 167.688 L 43.944 168.465 C 43.516 166.864 44.465 165.219 46.066 164.791 L 46.842 167.688 Z M 152.64 164.546 L 155.538 163.77 C 155.967 165.37 155.017 167.015 153.416 167.444 L 152.64 164.546 Z M 54.124 190.943 L 52.799 188.252 C 52.975 188.165 53.159 188.096 53.348 188.046 L 54.124 190.943 Z M 46.849 167.715 L 49.747 166.939 C 50.137 168.393 49.388 169.911 47.997 170.487 L 46.849 167.715 Z M 147.115 143.926 L 47.619 170.586 L 46.066 164.791 L 145.562 138.131 L 147.115 143.926 Z M 149.742 165.323 L 143.441 141.805 L 149.236 140.252 L 155.538 163.77 L 149.742 165.323 Z M 53.348 188.046 L 151.864 161.648 L 153.416 167.444 L 54.901 193.841 L 53.348 188.046 Z M 52.775 188.261 C 52.782 188.259 52.789 188.257 52.799 188.252 L 55.449 193.635 C 55.093 193.81 54.719 193.952 54.328 194.057 L 52.775 188.261 Z M 47.397 180.174 C 48.175 183.077 49.435 185.402 50.704 186.833 C 51.337 187.547 51.89 187.946 52.288 188.133 C 52.479 188.223 52.608 188.253 52.679 188.262 C 52.743 188.27 52.769 188.263 52.775 188.261 L 54.328 194.057 C 51.012 194.945 48.089 192.927 46.215 190.813 C 44.207 188.549 42.568 185.334 41.602 181.727 L 47.397 180.174 Z M 47.997 170.487 C 47.953 170.505 47.255 170.938 46.888 172.981 C 46.554 174.843 46.652 177.394 47.397 180.174 L 41.602 181.727 C 40.673 178.262 40.465 174.808 40.983 171.921 C 41.468 169.214 42.781 166.152 45.702 164.943 L 47.997 170.487 Z M 49.74 166.912 L 49.747 166.939 L 43.952 168.492 L 43.944 168.465 L 49.74 166.912 Z" fill="#003682" mask="url(#path-10-inside-4_2_248)"/>
  <path d="M 44.499 180.949 C 46.243 187.459 50.296 192.029 53.551 191.157 C 56.806 190.285 58.03 184.3 56.286 177.79 C 54.542 171.28 50.489 166.71 47.234 167.582 C 43.979 168.454 42.754 174.439 44.499 180.949 Z" fill="#6ECCE5"/>
  <path d="M 47.396 180.172 C 48.174 183.075 49.434 185.4 50.703 186.831 C 51.336 187.545 51.889 187.944 52.287 188.131 C 52.478 188.221 52.607 188.251 52.678 188.26 C 52.742 188.268 52.768 188.261 52.774 188.259 L 54.327 194.055 C 51.011 194.943 48.088 192.926 46.214 190.811 C 44.206 188.547 42.567 185.332 41.601 181.725 L 47.396 180.172 Z M 52.774 188.259 C 52.781 188.257 52.806 188.251 52.858 188.211 C 52.915 188.168 53.012 188.078 53.132 187.905 C 53.383 187.544 53.662 186.922 53.854 185.986 C 54.237 184.113 54.166 181.469 53.388 178.567 L 59.184 177.014 C 60.15 180.621 60.339 184.224 59.732 187.189 C 59.166 189.957 57.644 193.166 54.327 194.055 L 52.774 188.259 Z M 53.388 178.567 C 52.61 175.664 51.35 173.339 50.082 171.908 C 49.448 171.194 48.895 170.795 48.497 170.608 C 48.307 170.518 48.177 170.488 48.107 170.479 C 48.042 170.471 48.017 170.478 48.01 170.48 L 46.457 164.684 C 49.774 163.796 52.696 165.814 54.571 167.928 C 56.579 170.192 58.217 173.407 59.184 177.014 L 53.388 178.567 Z M 48.01 170.48 C 48.004 170.482 47.978 170.488 47.926 170.528 C 47.87 170.571 47.772 170.661 47.652 170.834 C 47.402 171.195 47.122 171.817 46.931 172.753 C 46.547 174.626 46.619 177.27 47.396 180.172 L 41.601 181.725 C 40.634 178.118 40.446 174.515 41.052 171.55 C 41.619 168.782 43.141 165.573 46.457 164.684 L 48.01 170.48 Z" fill="#003682" mask="url(#path-12-inside-5_2_248)"/>
  <path d="M 144.176 154.244 C 144.998 157.31 146.385 159.837 147.89 161.454 C 149.447 163.126 150.824 163.543 151.751 163.295 C 152.678 163.046 153.662 161.996 154.174 159.77 C 154.669 157.617 154.607 154.735 153.785 151.669 C 152.964 148.602 151.577 146.076 150.071 144.458 C 148.515 142.786 147.138 142.369 146.211 142.618 C 145.283 142.866 144.299 143.916 143.788 146.142 C 143.293 148.295 143.355 151.177 144.176 154.244 Z" fill="#6ECCE5" stroke="#003682" stroke-width="3"/>
  <path fill-rule="evenodd" clip-rule="evenodd" d="M 46.842 167.688 L 146.338 141.028 L 152.64 164.546 L 54.124 190.943 C 53.941 191.033 53.75 191.106 53.552 191.159 C 50.297 192.031 46.244 187.461 44.5 180.951 C 42.826 174.705 43.886 168.942 46.849 167.715 L 46.842 167.688 Z" fill="#6ECCE5"/>
  <path d="M 146.338 141.028 L 145.562 138.131 C 146.331 137.925 147.149 138.033 147.838 138.43 C 148.528 138.828 149.03 139.483 149.236 140.252 L 146.338 141.028 Z M 46.842 167.688 L 43.944 168.465 C 43.516 166.864 44.465 165.219 46.066 164.791 L 46.842 167.688 Z M 152.64 164.546 L 155.538 163.77 C 155.967 165.37 155.017 167.015 153.416 167.444 L 152.64 164.546 Z M 54.124 190.943 L 52.799 188.252 C 52.975 188.165 53.159 188.096 53.348 188.046 L 54.124 190.943 Z M 46.849 167.715 L 49.747 166.939 C 50.137 168.393 49.388 169.911 47.997 170.487 L 46.849 167.715 Z M 147.115 143.926 L 47.619 170.586 L 46.066 164.791 L 145.562 138.131 L 147.115 143.926 Z M 149.742 165.323 L 143.441 141.805 L 149.236 140.252 L 155.538 163.77 L 149.742 165.323 Z M 53.348 188.046 L 151.864 161.648 L 153.416 167.444 L 54.901 193.841 L 53.348 188.046 Z M 52.775 188.261 C 52.782 188.259 52.789 188.257 52.799 188.252 L 55.449 193.635 C 55.093 193.81 54.719 193.952 54.328 194.057 L 52.775 188.261 Z M 47.397 180.174 C 48.175 183.077 49.435 185.402 50.704 186.833 C 51.337 187.547 51.89 187.946 52.288 188.133 C 52.479 188.223 52.608 188.253 52.679 188.262 C 52.743 188.27 52.769 188.263 52.775 188.261 L 54.328 194.057 C 51.012 194.945 48.089 192.927 46.215 190.813 C 44.207 188.549 42.568 185.334 41.602 181.727 L 47.397 180.174 Z M 47.997 170.487 C 47.953 170.505 47.255 170.938 46.888 172.981 C 46.554 174.843 46.652 177.394 47.397 180.174 L 41.602 181.727 C 40.673 178.262 40.465 174.808 40.983 171.921 C 41.468 169.214 42.781 166.152 45.702 164.943 L 47.997 170.487 Z M 49.74 166.912 L 49.747 166.939 L 43.952 168.492 L 43.944 168.465 L 49.74 166.912 Z" fill="#003682" mask="url(#path-15-inside-6_2_248)"/>
  <path d="M 44.499 180.949 C 46.243 187.459 50.296 192.029 53.551 191.157 C 56.806 190.285 58.03 184.3 56.286 177.79 C 54.542 171.28 50.489 166.71 47.234 167.582 C 43.979 168.454 42.754 174.439 44.499 180.949 Z" fill="#6ECCE5"/>
  <path d="M 47.396 180.172 C 48.174 183.075 49.434 185.4 50.703 186.831 C 51.336 187.545 51.889 187.944 52.287 188.131 C 52.478 188.221 52.607 188.251 52.678 188.26 C 52.742 188.268 52.768 188.261 52.774 188.259 L 54.327 194.055 C 51.011 194.943 48.088 192.926 46.214 190.811 C 44.206 188.547 42.567 185.332 41.601 181.725 L 47.396 180.172 Z M 52.774 188.259 C 52.781 188.257 52.806 188.251 52.858 188.211 C 52.915 188.168 53.012 188.078 53.132 187.905 C 53.383 187.544 53.662 186.922 53.854 185.986 C 54.237 184.113 54.166 181.469 53.388 178.567 L 59.184 177.014 C 60.15 180.621 60.339 184.224 59.732 187.189 C 59.166 189.957 57.644 193.166 54.327 194.055 L 52.774 188.259 Z M 53.388 178.567 C 52.61 175.664 51.35 173.339 50.082 171.908 C 49.448 171.194 48.895 170.795 48.497 170.608 C 48.307 170.518 48.177 170.488 48.107 170.479 C 48.042 170.471 48.017 170.478 48.01 170.48 L 46.457 164.684 C 49.774 163.796 52.696 165.814 54.571 167.928 C 56.579 170.192 58.217 173.407 59.184 177.014 L 53.388 178.567 Z M 48.01 170.48 C 48.004 170.482 47.978 170.488 47.926 170.528 C 47.87 170.571 47.772 170.661 47.652 170.834 C 47.402 171.195 47.122 171.817 46.931 172.753 C 46.547 174.626 46.619 177.27 47.396 180.172 L 41.601 181.725 C 40.634 178.118 40.446 174.515 41.052 171.55 C 41.619 168.782 43.141 165.573 46.457 164.684 L 48.01 170.48 Z" fill="#003682" mask="url(#path-17-inside-7_2_248)"/>
  <path d="M 144.176 154.244 C 144.998 157.31 146.385 159.837 147.89 161.454 C 149.447 163.126 150.824 163.543 151.751 163.295 C 152.678 163.046 153.662 161.996 154.174 159.77 C 154.669 157.617 154.607 154.735 153.785 151.669 C 152.964 148.602 151.577 146.076 150.071 144.458 C 148.515 142.786 147.138 142.369 146.211 142.618 C 145.283 142.866 144.299 143.916 143.788 146.142 C 143.293 148.295 143.355 151.177 144.176 154.244 Z" fill="#6ECCE5" stroke="#003682" stroke-width="3"/>
  <path fill-rule="evenodd" clip-rule="evenodd" d="M 93.794 141.492 C 120.344 143.257 143.437 124.687 145.275 99.995 C 145.687 94.652 145.078 90.259 143.724 86.563 C 138.932 67.018 119.186 44.359 119.186 44.359 C 121.013 53.37 118.634 58.738 114.443 62.713 C 101.659 55.055 92.193 44.512 103.575 14.94 C 103.575 14.94 51.892 59.545 49.281 93.578 C 47.369 118.252 67.244 139.727 93.794 141.492 Z" fill="url(#paint0_linear_2_248)"/>
  <path d="M 145.275 99.995 L 142.284 99.764 L 142.283 99.772 L 145.275 99.995 Z M 93.794 141.492 L 93.993 138.499 L 93.794 141.492 Z M 143.724 86.563 L 140.81 87.277 L 140.85 87.438 L 140.907 87.594 L 143.724 86.563 Z M 119.186 44.359 L 121.448 42.388 L 113.99 33.829 L 116.246 44.955 L 119.186 44.359 Z M 114.443 62.713 L 112.902 65.287 L 114.856 66.457 L 116.508 64.89 L 114.443 62.713 Z M 103.575 14.94 L 106.375 16.018 L 101.615 12.669 L 103.575 14.94 Z M 49.281 93.578 L 52.272 93.81 L 52.272 93.808 L 49.281 93.578 Z M 142.283 99.772 C 140.582 122.618 119.11 140.169 93.993 138.499 L 93.595 144.486 C 121.577 146.346 146.291 126.757 148.267 100.218 L 142.283 99.772 Z M 140.907 87.594 C 142.091 90.826 142.668 94.78 142.284 99.764 L 148.266 100.225 C 148.706 94.524 148.065 89.692 146.541 85.531 L 140.907 87.594 Z M 146.638 85.848 C 144.109 75.534 137.719 64.617 132.136 56.44 C 129.319 52.314 126.657 48.813 124.697 46.341 C 123.717 45.104 122.91 44.123 122.347 43.447 C 122.065 43.11 121.843 42.848 121.69 42.67 C 121.614 42.58 121.555 42.512 121.514 42.464 C 121.494 42.441 121.478 42.422 121.467 42.41 C 121.461 42.403 121.457 42.398 121.454 42.394 C 121.452 42.393 121.451 42.391 121.45 42.39 C 121.449 42.389 121.449 42.389 121.449 42.389 C 121.448 42.388 121.448 42.388 119.186 44.359 C 116.924 46.329 116.924 46.329 116.924 46.329 C 116.924 46.329 116.924 46.329 116.924 46.329 C 116.924 46.329 116.925 46.33 116.926 46.331 C 116.927 46.333 116.93 46.336 116.934 46.34 C 116.942 46.35 116.954 46.364 116.971 46.384 C 117.006 46.424 117.058 46.485 117.128 46.566 C 117.267 46.729 117.474 46.973 117.741 47.293 C 118.276 47.934 119.05 48.875 119.995 50.068 C 121.888 52.456 124.462 55.841 127.18 59.823 C 132.668 67.861 138.547 78.047 140.81 87.277 L 146.638 85.848 Z M 116.246 44.955 C 117.086 49.098 116.914 52.176 116.198 54.562 C 115.487 56.929 114.176 58.832 112.379 60.536 L 116.508 64.89 C 118.902 62.619 120.875 59.85 121.945 56.287 C 123.009 52.742 123.113 48.63 122.126 43.762 L 116.246 44.955 Z M 100.776 13.862 C 94.967 28.952 94.237 39.782 97.114 48.032 C 100.006 56.325 106.313 61.34 112.902 65.287 L 115.985 60.139 C 109.79 56.428 104.972 52.342 102.78 46.057 C 100.573 39.728 100.801 30.499 106.375 16.018 L 100.776 13.862 Z M 52.272 93.808 C 52.876 85.945 56.35 77.233 61.46 68.441 C 66.548 59.687 73.128 51.075 79.682 43.453 C 86.229 35.84 92.702 29.269 97.542 24.6 C 99.96 22.268 101.966 20.414 103.365 19.146 C 104.064 18.512 104.611 18.025 104.981 17.698 C 105.166 17.534 105.306 17.411 105.4 17.329 C 105.447 17.288 105.482 17.258 105.504 17.238 C 105.516 17.228 105.524 17.221 105.529 17.217 C 105.532 17.214 105.534 17.213 105.535 17.212 C 105.535 17.211 105.535 17.211 105.536 17.211 C 105.536 17.211 105.535 17.211 103.575 14.94 C 101.615 12.669 101.615 12.669 101.614 12.67 C 101.613 12.671 101.612 12.671 101.611 12.672 C 101.609 12.674 101.606 12.677 101.603 12.68 C 101.595 12.686 101.585 12.695 101.572 12.707 C 101.545 12.73 101.505 12.764 101.454 12.809 C 101.352 12.898 101.202 13.03 101.008 13.201 C 100.62 13.544 100.054 14.049 99.334 14.701 C 97.896 16.005 95.844 17.902 93.376 20.282 C 88.444 25.04 81.833 31.748 75.133 39.541 C 68.439 47.325 61.609 56.244 56.272 65.426 C 50.958 74.569 46.992 84.195 46.29 93.349 L 52.272 93.808 Z M 93.993 138.499 C 68.91 136.831 50.504 116.627 52.272 93.81 L 46.29 93.346 C 44.234 119.877 65.578 142.623 93.595 144.486 L 93.993 138.499 Z" fill="#FF6633" mask="url(#path-20-inside-8_2_248)"/>
  <path d="M 95.559 136.397 C 87.721 136.29 82.204 133.261 78.622 129.113 C 75.01 124.93 73.304 119.533 73.282 114.651 C 73.254 108.575 74.778 104.735 76.89 101.845 C 78.611 99.491 80.719 97.743 82.974 95.875 C 83.58 95.372 84.197 94.861 84.82 94.327 C 87.7 91.856 90.541 89.001 92.136 84.535 C 93.482 80.765 93.892 75.987 92.905 69.521 C 93.455 69.931 94.068 70.399 94.732 70.921 C 97.618 73.192 101.453 76.488 105.255 80.592 C 112.903 88.849 120.196 100.134 119.761 112.77 C 119.294 126.37 109.469 136.586 95.559 136.397 Z" fill="url(#paint1_linear_2_248)" stroke="#FF6633" stroke-width="3"/>
  <path d="M 124.037 14.092 L 124.037 14.093 C 124.685 17.307 122.665 20.339 119.633 20.935 C 116.599 21.531 113.555 19.484 112.906 16.262 C 112.61 14.781 112.858 13.747 113.31 12.885 C 113.763 12.024 114.424 11.307 115.224 10.439 C 115.302 10.355 115.381 10.269 115.461 10.181 C 116.3 9.267 117.315 8.127 117.792 6.642 C 117.888 6.344 117.96 6.04 118.008 5.729 C 118.389 6.081 118.786 6.459 119.187 6.859 C 120.293 7.961 121.405 9.204 122.299 10.479 C 123.202 11.769 123.819 13.002 124.037 14.092 Z" fill="#F4861D" stroke="#FF6633" stroke-width="3"/>
  <path d="M 110.17 117.026 L 103.458 128.651 L 90.034 128.651 L 83.323 117.026 L 90.034 105.401 L 103.458 105.401 L 110.17 117.026 Z" fill="#FFBA00"/>
  <path d="M 142.371 145.284 L 53.095 169.009 L 53.095 169.01 L 142.871 155.785 C 142.871 155.785 141.919 152.161 141.871 149.786 C 141.832 147.824 142.371 145.284 142.371 145.284 Z" fill="#E2F5FA"/>
</svg>
